# Blender 3.6.1
# www.blender.org
g car_a_car_a
v -0.734794 -0.598380 1.350117
v -0.734794 1.477515 0.860056
v 2.228373 -0.598658 1.196111
v 2.310336 1.443637 0.860117
v 3.292664 -0.418081 1.079185
v 3.254684 0.685113 0.975721
v -1.843938 -0.598379 1.151978
v -1.719636 0.712654 1.326220
v -3.401824 -0.589762 1.063198
v -3.510399 0.390115 1.221563
v -2.680450 0.556444 1.273847
v -2.650917 -0.594071 1.107551
v 0.743396 -0.598380 1.350116
v 0.786712 1.519518 0.887456
v -0.734793 0.439568 1.446806
v 2.271294 0.415679 1.456977
v 3.379001 0.152108 1.183070
v -1.839336 0.296371 1.448515
v -3.494706 0.097246 1.343858
v -2.671623 0.212575 1.396142
v 0.765054 0.460569 1.446804
v -0.734795 -0.598379 -0.035112
v -0.734795 1.477516 -0.035112
v 2.222014 -0.598398 -0.035118
v 2.305713 1.443827 -0.035027
v 3.292663 -0.418081 -0.035117
v 3.254683 0.685113 -0.035117
v -1.843940 -0.598379 -0.035111
v -1.719638 0.712654 -0.035111
v -3.401825 -0.589762 -0.035109
v -3.510400 0.390115 -0.035109
v -2.650918 -0.594071 -0.035110
v -2.680451 0.556444 -0.035110
v 0.786711 1.519518 -0.035114
v 0.743394 -0.598380 -0.035114
v -3.484148 0.097246 -0.035109
v 3.378999 0.152109 -0.035117
v -1.351426 0.713839 1.312429
v -1.332596 0.912597 1.312429
v -1.252803 0.704496 1.303112
v -1.233973 0.903253 1.303112
v -1.322286 0.711079 1.623677
v -1.303456 0.909836 1.623677
v -1.223663 0.701736 1.614361
v -1.204833 0.900493 1.614361
v -1.336416 0.872274 1.312429
v -1.237794 0.862931 1.303112
v -1.208653 0.860170 1.614361
v -1.307276 0.869513 1.623677
v -1.262973 0.705460 1.194489
v -1.361595 0.714803 1.203805
v -1.247963 0.863894 1.194489
v -1.346586 0.873237 1.203805
v -0.734797 -0.598379 -1.420342
v -0.734796 1.477516 -0.930280
v 2.215654 -0.598137 -1.266347
v 2.301000 1.441868 -0.930443
v 3.292662 -0.418080 -1.149419
v 3.202178 0.685113 -1.045955
v -1.843941 -0.598379 -1.222200
v -1.719639 0.712654 -1.396442
v -3.401827 -0.589762 -1.133417
v -3.510402 0.390115 -1.291781
v -2.680453 0.556444 -1.344067
v -2.650919 -0.594070 -1.177771
v 0.743393 -0.598379 -1.420344
v 0.786709 1.519519 -0.957683
v -0.734797 0.439568 -1.517031
v 2.255881 0.416311 -1.527195
v 3.378998 0.152109 -1.253304
v -1.839340 0.296372 -1.518737
v -3.494709 0.097247 -1.414076
v -2.671626 0.212575 -1.466363
v 0.765051 0.460570 -1.517033
v -1.351429 0.713840 -1.382652
v -1.332599 0.912597 -1.382652
v -1.252806 0.704497 -1.373336
v -1.233976 0.903254 -1.373336
v -1.322289 0.711079 -1.693900
v -1.303460 0.909837 -1.693900
v -1.223667 0.701736 -1.684584
v -1.204837 0.900494 -1.684584
v -1.336419 0.872274 -1.382652
v -1.237797 0.862931 -1.373336
v -1.208657 0.860171 -1.684584
v -1.307280 0.869514 -1.693900
v -1.262975 0.705460 -1.264712
v -1.361598 0.714803 -1.274028
v -1.247966 0.863894 -1.264712
v -1.346588 0.873238 -1.274028
v -3.468796 -0.251842 1.363463
v -3.489777 -0.014240 1.363463
v -3.619758 -0.265173 -0.035113
v -3.640739 -0.027570 -0.035113
v -3.245389 -0.232115 1.449157
v -3.266370 0.005488 1.449157
v -3.425132 -0.247987 -0.035113
v -3.446113 -0.010384 -0.035113
v -3.583671 -0.261986 1.114569
v -3.604652 -0.024383 1.114569
v -3.425132 -0.247987 1.258680
v -3.446113 -0.010384 1.258680
v -2.973106 0.031384 1.258680
v -2.973106 0.031384 1.426971
v -2.952125 -0.206219 1.426971
v -2.952125 -0.206219 1.258680
v -3.468796 -0.251842 -1.433689
v -3.489777 -0.014240 -1.433689
v -3.245389 -0.232115 -1.519383
v -3.266370 0.005488 -1.519383
v -3.583671 -0.261986 -1.184795
v -3.604652 -0.024383 -1.184795
v -3.425132 -0.247987 -1.328906
v -3.446113 -0.010384 -1.328906
v -2.973106 0.031384 -1.328906
v -2.973106 0.031384 -1.497197
v -2.952125 -0.206219 -1.497197
v -2.952125 -0.206219 -1.328906
v 3.176518 -0.159053 1.322355
v 3.177654 0.108315 1.322355
v 3.167899 -0.159017 -0.035112
v 3.169035 0.108352 -0.035112
v 3.387306 -0.159948 1.179472
v 3.388442 0.107420 1.179472
v 3.435267 -0.160152 -0.035112
v 3.436403 0.107216 -0.035112
v 3.167899 -0.159017 1.167231
v 3.169035 0.108352 1.167231
v 3.435267 -0.160152 0.801600
v 3.436403 0.107216 0.801600
v 2.809640 -0.157495 1.167231
v 2.809640 -0.157495 1.328814
v 2.810775 0.109873 1.328814
v 2.810775 0.109873 1.167231
v 3.176518 -0.159053 -1.392580
v 3.177654 0.108315 -1.392580
v 3.387306 -0.159948 -1.249697
v 3.388442 0.107420 -1.249697
v 3.167899 -0.159017 -1.237456
v 3.169035 0.108352 -1.237456
v 3.435267 -0.160152 -0.871825
v 3.436403 0.107216 -0.871825
v 2.809640 -0.157495 -1.237456
v 2.809640 -0.157495 -1.399039
v 2.810775 0.109873 -1.399039
v 2.810775 0.109873 -1.237456
v -1.677768 -0.235996 1.374210
v -1.678862 -0.130193 1.389557
v -1.677923 -0.221011 1.270885
v -1.679017 -0.115208 1.286232
v 1.468695 -0.197873 1.335658
v 1.467601 -0.092069 1.351005
v 1.468598 -0.188479 1.270885
v 1.467504 -0.082675 1.286232
v 0.781848 -0.195580 1.270885
v -0.991172 -0.213911 1.270885
v -0.992266 -0.108107 1.286232
v 0.780754 -0.089776 1.286232
v -0.990943 -0.236053 1.423556
v 0.782054 -0.215505 1.408273
v 0.780960 -0.109701 1.423619
v -0.992037 -0.130249 1.438902
v 2.297879 1.127864 0.819467
v 2.297879 1.380742 0.819467
v 2.297879 1.127864 -0.889699
v 2.297879 1.380742 -0.889699
v 2.607977 1.127864 0.819467
v 2.579367 1.409352 0.819467
v 2.607977 1.127864 -0.889699
v 2.579367 1.409352 -0.889699
v 2.613499 -0.618488 0.787022
v 2.595343 -0.476010 0.787022
v 2.613499 -0.618488 -0.185012
v 2.595343 -0.476010 -0.185012
v 3.209917 -0.542488 0.787022
v 3.191762 -0.400011 0.787022
v 3.209917 -0.542488 -0.185012
v 3.191762 -0.400011 -0.185012
v 3.481685 -0.463871 0.643603
v 3.193570 -0.487783 0.643603
v 3.473737 -0.368096 0.610511
v 3.185622 -0.392008 0.610511
v 3.468677 -0.307137 0.691686
v 3.180562 -0.331049 0.691686
v 3.473499 -0.365236 0.774945
v 3.185384 -0.389148 0.774945
v 3.481539 -0.462103 0.745228
v 3.193424 -0.486015 0.745228
v -1.677768 -0.235996 -1.444435
v -1.678862 -0.130193 -1.459781
v -1.677923 -0.221011 -1.341110
v -1.679017 -0.115208 -1.356456
v 1.468695 -0.197873 -1.405883
v 1.467601 -0.092069 -1.421229
v 1.468598 -0.188479 -1.341110
v 1.467504 -0.082675 -1.356456
v 0.781848 -0.195580 -1.341110
v -0.991172 -0.213911 -1.341110
v -0.992266 -0.108107 -1.356456
v 0.780754 -0.089776 -1.356456
v -0.990943 -0.236053 -1.493781
v 0.782054 -0.215505 -1.478498
v 0.780960 -0.109701 -1.493844
v -0.992037 -0.130249 -1.509127
s 1
f 21 14 2 15
f 35 24 3 13
f 34 23 2 14
f 37 27 6 17
f 25 4 6 27
f 16 3 5 17
f 15 2 8 18
f 22 1 7 28
f 20 11 10 19
f 32 12 9 30
f 28 7 12 32
f 18 8 11 20
f 25 34 14 4
f 22 35 13 1
f 16 4 14 21
f 3 16 21 13
f 7 18 20 12
f 12 20 19 9
f 1 15 18 7
f 4 16 17 6
f 26 37 17 5
f 13 21 15 1
f 9 19 36 30
f 8 29 33 11
f 11 33 31 10
f 19 10 31 36
f 2 23 29 8
f 3 24 26 5
f 46 39 41 47
f 47 41 45 48
f 48 45 43 49
f 49 43 39 46
f 40 44 42 38
f 45 41 39 43
f 42 49 46 38
f 44 48 49 42
f 40 47 48 44
f 47 40 50 52
f 38 46 53 51
f 46 47 52 53
f 40 38 51 50
f 74 68 55 67
f 35 66 56 24
f 34 67 55 23
f 37 70 59 27
f 25 27 59 57
f 69 70 58 56
f 68 71 61 55
f 22 28 60 54
f 73 72 63 64
f 32 30 62 65
f 28 32 65 60
f 71 73 64 61
f 25 57 67 34
f 22 54 66 35
f 69 74 67 57
f 56 66 74 69
f 60 65 73 71
f 65 62 72 73
f 54 60 71 68
f 57 59 70 69
f 26 58 70 37
f 66 54 68 74
f 62 30 36 72
f 61 64 33 29
f 64 63 31 33
f 72 36 31 63
f 55 61 29 23
f 56 58 26 24
f 83 84 78 76
f 84 85 82 78
f 85 86 80 82
f 86 83 76 80
f 77 75 79 81
f 82 80 76 78
f 79 75 83 86
f 81 79 86 85
f 77 81 85 84
f 84 89 87 77
f 75 88 90 83
f 83 90 89 84
f 77 87 88 75
f 99 100 94 93
f 96 95 105 104
f 95 96 92 91
f 99 101 95 91
f 102 100 92 96
f 98 94 100 102
f 93 97 101 99
f 97 98 102 101
f 91 92 100 99
f 106 103 104 105
f 101 102 103 106
f 95 101 106 105
f 102 96 104 103
f 111 93 94 112
f 110 116 117 109
f 109 107 108 110
f 111 107 109 113
f 114 110 108 112
f 98 114 112 94
f 93 111 113 97
f 97 113 114 98
f 107 111 112 108
f 118 117 116 115
f 113 118 115 114
f 109 117 118 113
f 114 115 116 110
f 129 130 124 123
f 123 124 120 119
f 127 129 123 119
f 130 128 120 124
f 126 122 128 130
f 121 125 129 127
f 125 126 130 129
f 119 120 133 132
f 132 133 134 131
f 120 128 134 133
f 127 119 132 131
f 141 137 138 142
f 137 135 136 138
f 139 135 137 141
f 142 138 136 140
f 126 142 140 122
f 121 139 141 125
f 125 141 142 126
f 135 144 145 136
f 144 143 146 145
f 136 145 146 140
f 139 143 144 135
f 147 148 150 149
f 153 154 152 151
f 159 162 148 147
f 155 153 151 160
f 157 150 148 162
f 154 158 161 152
f 158 157 162 161
f 149 156 159 147
f 156 155 160 159
f 151 152 161 160
f 160 161 162 159
f 165 166 170 169
f 169 170 168 167
f 167 168 164 163
f 170 166 164 168
f 171 172 174 173
f 173 174 178 177
f 177 178 176 175
f 175 176 172 171
f 173 177 175 171
f 179 180 182 181
f 181 182 184 183
f 183 184 186 185
f 185 186 188 187
f 187 188 180 179
f 179 181 183 185 187
f 189 190 192 191
f 195 196 194 193
f 201 204 190 189
f 197 195 193 202
f 199 192 190 204
f 196 200 203 194
f 200 199 204 203
f 191 198 201 189
f 198 197 202 201
f 193 194 203 202
f 202 203 204 201
g col_lower_b_col_lower_b
v -0.734794 -0.598380 1.350117
v 2.228373 -0.598658 1.196111
v 3.292664 -0.418081 1.079185
v -1.843938 -0.598379 1.151978
v -1.719636 0.712654 1.326220
v -3.401824 -0.589762 1.063198
v -3.510399 0.390115 1.221563
v -2.680450 0.556444 1.273847
v -2.650917 -0.594071 1.107551
v 0.743396 -0.598380 1.350116
v 2.271294 0.415679 1.456977
v 3.379001 0.152108 1.183070
v -1.839336 0.296371 1.448515
v -3.494706 0.097246 1.343858
v -0.734797 -0.598379 -1.420342
v 2.215654 -0.598137 -1.266347
v 3.292662 -0.418080 -1.149419
v -1.843941 -0.598379 -1.222200
v -1.719639 0.712654 -1.396442
v -3.401827 -0.589762 -1.133417
v -3.510402 0.390115 -1.291781
v -2.680453 0.556444 -1.344067
v -2.650919 -0.594070 -1.177771
v 0.743393 -0.598379 -1.420344
v 2.255881 0.416311 -1.527195
v 3.378998 0.152109 -1.253304
v -1.839340 0.296372 -1.518737
v -3.494709 0.097247 -1.414076
v -3.468796 -0.251842 1.363463
v -3.489777 -0.014240 1.363463
v -3.619758 -0.265173 -0.035113
v -3.640739 -0.027570 -0.035113
v -3.245389 -0.232115 1.449157
v -3.266370 0.005488 1.449157
v -3.583671 -0.261986 1.114569
v -3.604652 -0.024383 1.114569
v -3.468796 -0.251842 -1.433689
v -3.489777 -0.014240 -1.433689
v -3.245389 -0.232115 -1.519383
v -3.266370 0.005488 -1.519383
v -3.583671 -0.261986 -1.184795
v -3.604652 -0.024383 -1.184795
v 3.176518 -0.159053 1.322355
v 3.177654 0.108315 1.322355
v 3.387306 -0.159948 1.179472
v 3.388442 0.107420 1.179472
v 3.436403 0.107216 0.801600
v 3.176518 -0.159053 -1.392580
v 3.177654 0.108315 -1.392580
v 3.387306 -0.159948 -1.249697
v 3.388442 0.107420 -1.249697
v 3.435267 -0.160152 -0.871825
v 3.436403 0.107216 -0.871825
v 2.613499 -0.618488 0.787022
v 2.613499 -0.618488 -0.185012
v 3.209917 -0.542488 0.787022
v 3.209917 -0.542488 -0.185012
v 3.481685 -0.463871 0.643603
v 3.481539 -0.462103 0.745228
s 1
f 239 240 236 235
f 237 238 234 233
f 233 234 240 239
f 245 235 236 246
f 243 241 242 244
f 241 245 246 242
f 249 250 248 247
f 256 254 255 257
f 254 252 253 255
f 259 261 260 258
s 0
f 223 209 215 229
s 1
f 259 220 221
f 230 253 229
f 253 252 229
s 0
f 252 228 229
s 1
f 231 223 229
f 209 217 215
f 209 223 226 212
f 248 216 215
s 0
f 215 237 214
f 214 247 215
s 1
f 247 248 215
s 0
f 216 251 257
f 216 257 230
s 1
f 257 255 230
f 255 253 230
f 254 221 252
f 221 220 252
f 220 228 252
f 219 243 228
s 0
f 219 224 243
s 1
f 224 241 243
f 242 232 244
f 232 225 244
f 225 226 244
f 227 222 208 213
f 250 216 248
f 250 251 216
f 212 238 209
f 238 217 209
f 212 211 238
f 211 218 238
f 218 234 238
f 233 210 237
s 0
f 210 205 237
s 1
f 205 214 237
f 220 259 258 206
f 262 251 250
f 206 247 214
f 206 207 247
f 207 249 247
f 216 230 229
f 256 221 254
s 0
f 256 262 221
f 262 261 221
s 1
f 262 256 257
f 222 227 219
f 227 224 219
s 0
f 210 235 224
s 1
f 235 245 224
f 245 241 224
f 226 225 211 212
f 246 232 242
f 246 225 232
f 246 236 225
s 0
f 236 211 225
s 1
f 226 223 231
f 236 240 211
f 240 218 211
f 240 234 218
f 239 210 233
f 239 235 210
f 213 205 210
f 213 208 205
f 260 206 258
f 260 207 206
s 0
f 260 263 207
f 263 249 207
s 1
f 263 260 262
f 260 261 262
f 210 224 227 213
s 0
f 229 228 243
f 229 243 244
f 231 229 244
s 1
f 244 226 231
f 251 262 257
f 215 216 229
f 263 262 249
f 249 262 250
f 228 220 206 214 205 208 222 219
s 0
f 217 238 237
f 215 217 237
s 1
f 261 259 221
g col_upper_c_col_upper_c
v -0.734794 1.477515 0.860056
v 2.310336 1.443637 0.860117
v 3.254684 0.685113 0.975721
v -1.719636 0.712654 1.326220
v 0.786712 1.519518 0.887456
v -0.734793 0.439568 1.446806
v 2.271294 0.415679 1.456977
v 3.379001 0.152108 1.183070
v 0.765054 0.460569 1.446804
v 2.305713 1.443827 -0.035027
v 3.254683 0.685113 -0.035117
v -0.734796 1.477516 -0.930280
v 2.301000 1.441868 -0.930443
v 3.202178 0.685113 -1.045955
v -1.719639 0.712654 -1.396442
v 0.786709 1.519519 -0.957683
v -0.734797 0.439568 -1.517031
v 2.255881 0.416311 -1.527195
v 3.378998 0.152109 -1.253304
v 0.765051 0.460570 -1.517033
v 2.579367 1.409352 0.819467
v 2.579367 1.409352 -0.889699
s 1
f 270 265 268
f 281 283 279
f 264 268 279 275
f 280 283 281
f 276 285 281
s 0
f 285 277 281
s 1
f 277 282 281
f 282 280 281
f 265 273 279 268
f 278 283 280
f 267 278 280 269
f 278 279 283
f 278 275 279
s 0
f 271 269 280 282
s 1
f 264 275 278 267
f 273 276 279
f 273 285 276
f 273 265 285
f 265 284 285
f 284 266 274
f 284 274 285
f 274 277 285
f 274 282 277
s 0
f 274 271 282
s 1
f 270 272 269
f 272 267 269
f 271 270 269
f 274 266 271
f 266 270 271
f 267 268 264
f 267 272 268
f 270 284 265
s 0
f 270 266 284
s 1
f 276 281 279
f 272 270 268
g front_left_wheel_d_front_left_wheel_d
v -1.752628 -0.396648 1.434198
v -1.752628 -0.396648 0.980742
v -1.865659 -0.048773 1.434198
v -1.865659 -0.048773 0.980742
v -2.161578 0.166225 1.434198
v -2.161578 0.166225 0.980742
v -2.527355 0.166225 1.434198
v -2.527355 0.166225 0.980742
v -2.823275 -0.048773 1.434198
v -2.823275 -0.048773 0.980742
v -2.936306 -0.396648 1.434198
v -2.936306 -0.396648 0.980742
v -2.823276 -0.744522 1.434198
v -2.823276 -0.744522 0.980742
v -2.527355 -0.959520 1.434198
v -2.527355 -0.959520 0.980742
v -2.161579 -0.959520 1.434198
v -2.161578 -0.959520 0.980742
v -1.865659 -0.744522 1.434198
v -1.865659 -0.744522 0.980742
s 1
f 286 287 289 288
f 288 289 291 290
f 290 291 293 292
f 292 293 295 294
f 294 295 297 296
f 296 297 299 298
f 298 299 301 300
f 300 301 303 302
f 289 287 305 303 301 299 297 295 293 291
f 302 303 305 304
f 304 305 287 286
f 286 288 290 292 294 296 298 300 302 304
g front_right_wheel_e_front_right_wheel_e
v -2.936307 -0.396647 -1.504424
v -2.936307 -0.396647 -1.050967
v -2.823276 -0.048773 -1.504424
v -2.823276 -0.048773 -1.050967
v -2.527357 0.166225 -1.504424
v -2.527356 0.166225 -1.050967
v -2.161580 0.166225 -1.504424
v -2.161579 0.166225 -1.050967
v -1.865660 -0.048773 -1.504424
v -1.865660 -0.048773 -1.050967
v -1.752629 -0.396647 -1.504424
v -1.752629 -0.396647 -1.050968
v -1.865659 -0.744522 -1.504424
v -1.865659 -0.744522 -1.050967
v -2.161580 -0.959520 -1.504424
v -2.161579 -0.959520 -1.050967
v -2.527356 -0.959520 -1.504424
v -2.527356 -0.959520 -1.050967
v -2.823276 -0.744522 -1.504424
v -2.823276 -0.744522 -1.050967
s 1
f 306 307 309 308
f 308 309 311 310
f 310 311 313 312
f 312 313 315 314
f 314 315 317 316
f 316 317 319 318
f 318 319 321 320
f 320 321 323 322
f 309 307 325 323 321 319 317 315 313 311
f 322 323 325 324
f 324 325 307 306
f 306 308 310 312 314 316 318 320 322 324
g rear_left_wheel_f_rear_left_wheel_f
v 1.544901 -0.396647 1.434198
v 1.544901 -0.396647 0.980742
v 1.657933 -0.744522 1.434198
v 1.657933 -0.744522 0.980741
v 1.953852 -0.959520 1.434198
v 1.953852 -0.959520 0.980741
v 2.319629 -0.959520 1.434198
v 2.319629 -0.959520 0.980741
v 2.615549 -0.744522 1.434198
v 2.615549 -0.744522 0.980741
v 2.728580 -0.396647 1.434198
v 2.728580 -0.396647 0.980742
v 2.615550 -0.048773 1.434198
v 2.615550 -0.048773 0.980742
v 2.319629 0.166225 1.434198
v 2.319629 0.166225 0.980742
v 1.953853 0.166225 1.434198
v 1.953852 0.166226 0.980742
v 1.657933 -0.048773 1.434198
v 1.657933 -0.048773 0.980742
s 1
f 326 327 329 328
f 328 329 331 330
f 330 331 333 332
f 332 333 335 334
f 334 335 337 336
f 336 337 339 338
f 338 339 341 340
f 340 341 343 342
f 329 327 345 343 341 339 337 335 333 331
f 342 343 345 344
f 344 345 327 326
f 326 328 330 332 334 336 338 340 342 344
g rear_right_wheel_g_rear_right_wheel_g
v 2.728579 -0.396647 -1.504423
v 2.728579 -0.396647 -1.050967
v 2.615548 -0.744522 -1.504423
v 2.615548 -0.744522 -1.050967
v 2.319628 -0.959520 -1.504423
v 2.319628 -0.959520 -1.050967
v 1.953851 -0.959520 -1.504423
v 1.953851 -0.959520 -1.050967
v 1.657931 -0.744522 -1.504423
v 1.657931 -0.744522 -1.050967
v 1.544901 -0.396647 -1.504423
v 1.544901 -0.396648 -1.050967
v 1.657931 -0.048773 -1.504423
v 1.657931 -0.048773 -1.050967
v 1.953851 0.166225 -1.504423
v 1.953851 0.166225 -1.050967
v 2.319628 0.166226 -1.504423
v 2.319628 0.166225 -1.050967
v 2.615548 -0.048773 -1.504423
v 2.615548 -0.048773 -1.050967
s 1
f 346 347 349 348
f 348 349 351 350
f 350 351 353 352
f 352 353 355 354
f 354 355 357 356
f 356 357 359 358
f 358 359 361 360
f 360 361 363 362
f 349 347 365 363 361 359 357 355 353 351
f 362 363 365 364
f 364 365 347 346
f 346 348 350 352 354 356 358 360 362 364
