# Blender 5.0.1
# www.blender.org
o Cone
v 0.000000 0.067749 -1.000000
v -0.421159 0.067749 0.000000
v 0.000000 0.067749 1.000000
v -1.000000 0.067749 0.000000
v 0.000000 2.067749 0.000000
v -0.160823 0.125102 -3.679169
v 0.839177 0.125102 -2.679169
v -0.160823 0.125102 -1.679169
v -1.160823 0.125102 -2.679169
v -0.160823 2.125102 -2.679169
v -1.000000 0.125623 7.537814
v 0.235445 0.157567 -4.922988
v 0.000000 0.284416 1.928178
v 0.382683 0.284416 2.004298
v 0.559869 0.157567 -5.139761
v 0.707107 0.284416 2.221071
v 0.923880 0.284416 2.545494
v 0.776642 0.157567 -5.464184
v 1.000000 0.284416 2.928178
v 0.923880 0.284416 3.310861
v 0.852762 0.157567 -5.846868
v 0.707107 0.284416 3.635285
v 0.382683 0.284416 3.852057
v 0.776642 0.157567 -6.229551
v 0.000000 0.284416 3.928178
v -0.382683 0.284416 3.852057
v 0.559869 0.157567 -6.553975
v -0.707107 0.284416 3.635285
v -0.923880 0.284416 3.310861
v 0.235445 0.157567 -6.770747
v -1.000000 0.284416 2.928178
v -0.923880 0.284416 2.545494
v -0.147238 0.157567 -6.846868
v -0.707107 0.284416 2.221071
v -0.382683 0.284416 2.004298
v 0.000000 2.284416 2.928178
v -0.147238 0.157567 -4.846868
v -0.529921 0.157567 -4.922988
v 1.000000 0.125623 5.537814
v -0.854345 0.157567 -5.139761
v -1.071118 0.157567 -5.464184
v 1.000000 0.125623 7.537814
v -1.147238 0.157567 -5.846868
v -1.000000 2.125623 5.537814
v -1.071118 0.157567 -6.229551
v -1.000000 0.125623 5.537814
v -0.854345 0.157567 -6.553975
v -1.000000 2.125623 7.537814
v -0.529921 0.157567 -6.770747
v 6.381006 2.157567 -5.846868
v 1.000000 1.137844 5.537814
v 0.045736 2.132919 7.537814
v 0.046189 2.132919 5.537814
v 1.000000 1.099100 7.537814
v 0.022799 1.073834 5.464013
v 0.003212 1.086126 7.485368
v 0.161469 2.053135 8.693134
v 0.544153 2.053135 8.769255
v 0.868576 2.053135 8.986028
v 1.085349 2.053135 9.310451
v 1.161469 2.053135 9.693134
v 1.085349 2.053135 10.075818
v 0.868576 2.053135 10.400241
v 0.544153 2.053135 10.617014
v 0.161469 2.053135 10.693134
v -0.221214 2.053135 10.617014
v -0.545637 2.053135 10.400241
v -0.762410 2.053135 10.075818
v -0.838531 2.053135 9.693134
v -0.762410 2.053135 9.310451
v -0.545637 2.053135 8.986028
v -0.221214 2.053135 8.769255
v 0.161469 0.216112 9.693134
v 0.185228 0.438922 11.716354
v 0.567911 0.438922 11.792475
v 0.892335 1.174690 12.009248
v 1.109107 1.420127 12.333671
v 1.185228 1.420127 12.716354
v 1.109107 1.174690 13.099038
v 0.892335 0.438922 13.423461
v 0.567911 0.438922 13.640234
v 0.185228 0.438922 13.716354
v -0.197455 0.438922 13.640234
v -0.521879 1.174690 13.423461
v -0.738652 1.797570 13.099038
v -0.814772 1.797570 12.716354
v -0.738652 1.174690 12.333671
v -0.521879 0.438922 12.009248
v -0.197455 0.438922 11.792475
v 0.185228 1.181831 12.716354
vn 0.9047 -0.1905 0.3810
vn 0.9047 -0.1905 -0.3810
vn -0.6667 0.3333 0.6667
vn -0.6667 0.3333 -0.6667
vn -0.0000 -1.0000 -0.0000
vn 0.6667 0.3333 -0.6667
vn 0.6667 0.3333 0.6667
vn 0.3394 -0.9382 0.0675
vn -0.2212 0.9173 0.3311
vn 0.1752 0.4403 -0.8806
vn 0.4988 0.4403 -0.7465
vn 0.7465 0.4403 -0.4988
vn 0.3394 -0.9382 -0.0675
vn -0.1295 0.7481 0.6509
vn 0.8806 0.4403 -0.1752
vn 0.8806 0.4403 0.1752
vn 0.7465 0.4403 0.4988
vn 0.3410 -0.9120 -0.2279
vn 0.1930 -0.1449 0.9704
vn 0.4988 0.4403 0.7465
vn 0.1752 0.4403 0.8806
vn -0.1752 0.4403 0.8806
vn 0.3350 -0.7978 -0.5014
vn 0.3350 -0.7978 0.5014
vn -0.4988 0.4403 0.7465
vn -0.7465 0.4403 0.4988
vn -0.8806 0.4403 0.1752
vn 0.1930 -0.1449 -0.9704
vn 0.3410 -0.9120 0.2279
vn -0.8806 0.4403 -0.1752
vn -0.7465 0.4403 -0.4988
vn -0.4988 0.4403 -0.7465
vn -0.1752 0.4403 -0.8806
vn -0.2477 0.9546 0.1655
vn 0.0522 -0.0000 0.9986
vn -0.2564 0.9652 0.0510
vn 1.0000 -0.0000 -0.0000
vn -0.2564 0.9652 -0.0510
vn -0.0000 -0.0776 -0.9970
vn -0.2477 0.9546 -0.1655
vn -1.0000 -0.0000 -0.0000
vn -0.2212 0.9173 -0.3311
vn -0.1295 0.7481 -0.6509
vn -0.0070 1.0000 -0.0000
vn 0.9992 -0.0406 0.0002
vn -0.0649 0.9979 -0.0067
vn -0.0000 0.0545 0.9985
vn -0.0525 -0.0000 0.9986
vn 0.0003 -0.0501 0.9987
vn -0.0720 -0.0000 -0.9974
vn -0.0005 0.0695 -0.9976
vn 0.0753 -0.0000 -0.9972
vn 0.9997 -0.0228 0.0098
vn -0.0140 0.9997 0.0194
vn -0.1721 0.4710 0.8652
vn -0.4901 0.4710 0.7335
vn -0.7335 0.4710 0.4901
vn -0.8652 0.4710 0.1721
vn -0.8652 0.4710 -0.1721
vn -0.7335 0.4710 -0.4901
vn -0.4901 0.4710 -0.7335
vn -0.1721 0.4710 -0.8652
vn 0.1721 0.4710 -0.8652
vn 0.4901 0.4710 -0.7335
vn 0.7335 0.4710 -0.4901
vn 0.8652 0.4710 -0.1721
vn 0.8652 0.4710 0.1721
vn 0.7335 0.4710 0.4901
vn 0.4901 0.4710 0.7335
vn 0.1721 0.4710 0.8652
vn 0.1178 0.7971 -0.5922
vn -0.6251 0.4612 -0.6298
vn -0.3769 0.8423 -0.3854
vn -0.2316 0.9717 0.0461
vn -0.2007 0.8423 0.5003
vn -0.3365 0.4612 0.8210
vn 0.3355 0.7971 0.5020
vn 0.1178 0.7971 0.5922
vn -0.1178 0.7971 0.5922
vn 0.6251 0.4612 0.6298
vn 0.5997 0.5238 0.6050
vn 0.5215 0.8469 -0.1037
vn 0.3225 0.5238 -0.7884
vn 0.3365 0.4612 -0.8210
vn -0.3355 0.7971 -0.5020
vn -0.1178 0.7971 -0.5922
vt 0.250000 0.490000
vt 0.250000 0.250000
vt 0.490000 0.250000
vt 0.250000 0.010000
vt 0.010000 0.250000
vt 0.471731 0.158156
vt 0.158156 0.028269
vt 0.080294 0.080294
vt 0.341844 0.471731
vt 0.419706 0.419706
vt 0.471731 0.341844
vt 0.419706 0.080294
vt 0.341844 0.028269
vt 0.028269 0.158156
vt 0.028269 0.341844
vt 0.080294 0.419706
vt 0.971731 0.341844
vt 0.841844 0.028269
vt 0.528269 0.158156
vt 0.158156 0.471731
vt 0.625000 0.250000
vt 0.375000 0.500000
vt 0.375000 0.250000
vt 0.531834 0.599556
vt 0.625000 0.750000
vt 0.375000 0.750000
vt 0.530433 1.000000
vt 0.375000 1.000000
vt 0.125000 0.500000
vt 0.280759 0.654645
vt 0.125000 0.750000
vt 0.875000 0.500000
vt 0.625000 0.500000
vt 0.510000 0.250000
vt 0.750000 0.490000
vt 0.990000 0.250000
vt 0.475129 0.250000
vt 0.625000 0.000000
vt 0.475072 0.000000
vt 0.625000 0.600129
vt 0.285276 0.750000
vt 0.658156 0.471731
vt 0.841844 0.471731
vt 0.919706 0.419706
vt 0.971731 0.158156
vt 0.919706 0.080294
vt 0.750000 0.010000
vt 0.658156 0.028269
vt 0.580294 0.080294
vt 0.528269 0.341844
vt 0.580294 0.419706
vt 0.530433 0.500000
vt 0.535276 0.750000
vt 0.375000 0.649928
vt 0.875000 0.750000
s 0
f 1/1/1 5/2/1 2/3/1
f 2/3/2 5/2/2 3/4/2
f 3/4/3 5/2/3 4/5/3
f 4/5/4 5/2/4 1/1/4
f 2/3/5 4/5/5 1/1/5
f 6/1/6 10/2/6 7/3/6
f 7/3/7 10/2/7 8/4/7
f 8/4/3 10/2/3 9/5/3
f 9/5/4 10/2/4 6/1/4
f 7/3/5 9/5/5 6/1/5
f 21/3/8 50/2/8 18/6/8
f 38/7/9 50/2/9 40/8/9
f 13/1/10 36/2/10 14/9/10
f 14/9/11 36/2/11 16/10/11
f 16/10/12 36/2/12 17/11/12
f 24/11/13 50/2/13 21/3/13
f 37/4/14 50/2/14 38/7/14
f 17/11/15 36/2/15 19/3/15
f 19/3/16 36/2/16 20/6/16
f 20/6/17 36/2/17 22/12/17
f 27/10/18 50/2/18 24/11/18
f 12/13/19 50/2/19 37/4/19
f 22/12/20 36/2/20 23/13/20
f 23/13/21 36/2/21 25/4/21
f 25/4/22 36/2/22 26/7/22
f 30/9/23 50/2/23 27/10/23
f 15/12/24 50/2/24 12/13/24
f 26/7/25 36/2/25 28/8/25
f 28/8/26 36/2/26 29/14/26
f 29/14/27 36/2/27 31/5/27
f 33/1/28 50/2/28 30/9/28
f 18/6/29 50/2/29 15/12/29
f 31/5/30 36/2/30 32/15/30
f 32/15/31 36/2/31 34/16/31
f 17/17/5 23/18/5 29/19/5
f 34/16/32 36/2/32 35/20/32
f 39/21/5 11/22/5 46/23/5
f 35/20/33 36/2/33 13/1/33
f 40/8/34 50/2/34 41/14/34
f 56/24/35 48/25/35 11/26/35
f 41/14/36 50/2/36 43/5/36
f 39/26/37 54/27/37 42/28/37
f 43/5/38 50/2/38 45/15/38
f 46/29/39 55/30/39 39/31/39
f 45/15/40 50/2/40 47/16/40
f 48/32/41 46/25/41 11/33/41
f 43/34/5 33/35/5 21/36/5
f 47/16/42 50/2/42 49/20/42
f 49/20/43 50/2/43 33/1/43
f 52/37/44 44/38/44 48/21/44
f 56/24/45 53/39/45 52/40/45
f 56/24/46 51/41/46 55/30/46
f 2/3/5 3/4/5 4/5/5
f 7/3/5 8/4/5 9/5/5
f 35/42/5 13/35/5 17/17/5
f 13/35/5 14/43/5 17/17/5
f 14/43/5 16/44/5 17/17/5
f 17/17/5 19/36/5 20/45/5
f 20/45/5 22/46/5 23/18/5
f 23/18/5 25/47/5 29/19/5
f 25/47/5 26/48/5 29/19/5
f 26/48/5 28/49/5 29/19/5
f 29/19/5 31/34/5 32/50/5
f 32/50/5 34/51/5 35/42/5
f 17/17/5 20/45/5 23/18/5
f 29/19/5 32/50/5 35/42/5
f 35/42/5 17/17/5 29/19/5
f 39/21/5 42/33/5 11/22/5
f 11/26/47 42/22/47 56/24/47
f 42/22/48 54/52/48 56/24/48
f 56/24/49 52/40/49 48/25/49
f 39/26/37 51/53/37 54/27/37
f 46/29/50 44/22/50 55/30/50
f 44/22/51 53/54/51 55/30/51
f 55/30/52 51/41/52 39/31/52
f 48/32/41 44/55/41 46/25/41
f 21/36/5 18/45/5 15/46/5
f 15/46/5 12/18/5 37/47/5
f 37/47/5 38/48/5 40/49/5
f 40/49/5 41/19/5 43/34/5
f 43/34/5 45/50/5 47/51/5
f 47/51/5 49/42/5 33/35/5
f 33/35/5 30/43/5 21/36/5
f 30/43/5 27/44/5 21/36/5
f 27/44/5 24/17/5 21/36/5
f 21/36/5 15/46/5 37/47/5
f 37/47/5 40/49/5 21/36/5
f 40/49/5 43/34/5 21/36/5
f 43/34/5 47/51/5 33/35/5
f 52/37/44 53/39/44 44/38/44
f 56/24/53 55/30/53 53/39/53
f 56/24/54 54/27/54 51/41/54
f 57/1/55 73/2/55 58/9/55
f 58/9/56 73/2/56 59/10/56
f 59/10/57 73/2/57 60/11/57
f 60/11/58 73/2/58 61/3/58
f 61/3/59 73/2/59 62/6/59
f 62/6/60 73/2/60 63/12/60
f 63/12/61 73/2/61 64/13/61
f 64/13/62 73/2/62 65/4/62
f 65/4/63 73/2/63 66/7/63
f 66/7/64 73/2/64 67/8/64
f 67/8/65 73/2/65 68/14/65
f 68/14/66 73/2/66 69/5/66
f 69/5/67 73/2/67 70/15/67
f 70/15/68 73/2/68 71/16/68
f 71/16/69 73/2/69 72/20/69
f 72/20/70 73/2/70 57/1/70
f 74/1/71 90/2/71 75/9/71
f 75/9/72 90/2/72 76/10/72
f 76/10/73 90/2/73 77/11/73
f 77/11/74 90/2/74 78/3/74
f 78/3/75 90/2/75 79/6/75
f 79/6/76 90/2/76 80/12/76
f 80/12/77 90/2/77 81/13/77
f 81/13/78 90/2/78 82/4/78
f 82/4/79 90/2/79 83/7/79
f 83/7/80 90/2/80 84/8/80
f 84/8/81 90/2/81 85/14/81
f 85/14/82 90/2/82 86/5/82
f 86/5/83 90/2/83 87/15/83
f 87/15/84 90/2/84 88/16/84
f 88/16/85 90/2/85 89/20/85
f 89/20/86 90/2/86 74/1/86
